HIERARCHY
ROOT Hips
{
	OFFSET 0.000000 0.000000 0.000000
	CHANNELS 6 Xposition Yposition Zposition Zrotation Yrotation Xrotation
	JOINT LHipJoint
	{
		OFFSET 0.000000 0.000000 0.000000
		CHANNELS 3 Zrotation Yrotation Xrotation
		JOINT LeftUpLeg
		{
			OFFSET 1.363060 -1.794630 0.839290
			CHANNELS 3 Zrotation Yrotation Xrotation
			JOINT LeftLeg
			{
				OFFSET 2.448110 -6.726130 0.000000
				CHANNELS 3 Zrotation Yrotation Xrotation
				JOINT LeftFoot
				{
					OFFSET 2.562200 -7.039590 0.000000
					CHANNELS 3 Zrotation Yrotation Xrotation
					JOINT LeftToeBase
					{
						OFFSET 0.157640 -0.433110 2.322550
						CHANNELS 3 Zrotation Yrotation Xrotation
						End Site
						{
							OFFSET 0.000000 0.000000 0.000000
						}
					}
				}
			}
		}
	}
	JOINT RHipJoint
	{
		OFFSET 0.000000 0.000000 0.000000
		CHANNELS 3 Zrotation Yrotation Xrotation
		JOINT RightUpLeg
		{
			OFFSET -1.305520 -1.794630 0.839290
			CHANNELS 3 Zrotation Yrotation Xrotation
			JOINT RightLeg
			{
				OFFSET -2.542530 -6.985550 0.000000
				CHANNELS 3 Zrotation Yrotation Xrotation
				JOINT RightFoot
				{
					OFFSET -2.568260 -7.056230 0.000000
					CHANNELS 3 Zrotation Yrotation Xrotation
					JOINT RightToeBase
					{
						OFFSET -0.164730 -0.452590 2.363150
						CHANNELS 3 Zrotation Yrotation Xrotation
						End Site
						{
							OFFSET 0.000000 0.000000 0.000000
						}
					}
				}
			}
		}
	}
	JOINT LowerBack
	{
		OFFSET 0.000000 0.000000 0.000000
		CHANNELS 3 Zrotation Yrotation Xrotation
		JOINT Spine
		{
			OFFSET 0.028270 2.035590 -0.193380
			CHANNELS 3 Zrotation Yrotation Xrotation
			JOINT Spine1
			{
				OFFSET 0.056720 2.048850 -0.042750
				CHANNELS 3 Zrotation Yrotation Xrotation
				JOINT Neck
				{
					OFFSET 0.000000 0.000000 0.000000
					CHANNELS 3 Zrotation Yrotation Xrotation
					JOINT Neck1
					{
						OFFSET -0.054170 1.746240 0.172020
						CHANNELS 3 Zrotation Yrotation Xrotation
						JOINT Head
						{
							OFFSET 0.104070 1.761360 -0.123970
							CHANNELS 3 Zrotation Yrotation Xrotation
							End Site
							{
								OFFSET 0.000000 0.000000 0.000000
							}
						}
					}
				}
				JOINT LeftShoulder
				{
					OFFSET 0.000000 0.000000 0.000000
					CHANNELS 3 Zrotation Yrotation Xrotation
					JOINT LeftArm
					{
						OFFSET 3.362410 1.200890 -0.311210
						CHANNELS 3 Zrotation Yrotation Xrotation
						JOINT LeftForeArm
						{
							OFFSET 4.983000 -0.000000 -0.000000
							CHANNELS 3 Zrotation Yrotation Xrotation
							JOINT LeftHand
							{
								OFFSET 3.483560 -0.000000 -0.000000
								CHANNELS 3 Zrotation Yrotation Xrotation
								JOINT LeftFingerBase
								{
									OFFSET 0.000000 0.000000 0.000000
									CHANNELS 3 Zrotation Yrotation Xrotation
									JOINT LeftHandIndex1
									{
										OFFSET 0.715260 -0.000000 -0.000000
										CHANNELS 3 Zrotation Yrotation Xrotation
										End Site
										{
											OFFSET 0.000000 0.000000 0.000000
										}
									}
								}
								JOINT LThumb
								{
									OFFSET 0.000000 0.000000 0.000000
									CHANNELS 3 Zrotation Yrotation Xrotation
									End Site
									{
										OFFSET 0.000000 0.000000 0.000000
									}
								}
							}
						}
					}
				}
				JOINT RightShoulder
				{
					OFFSET 0.000000 0.000000 0.000000
					CHANNELS 3 Zrotation Yrotation Xrotation
					JOINT RightArm
					{
						OFFSET -3.136600 1.374050 -0.404650
						CHANNELS 3 Zrotation Yrotation Xrotation
						JOINT RightForeArm
						{
							OFFSET -5.241900 -0.000000 -0.000000
							CHANNELS 3 Zrotation Yrotation Xrotation
							JOINT RightHand
							{
								OFFSET -3.444170 -0.000000 -0.000000
								CHANNELS 3 Zrotation Yrotation Xrotation
								JOINT RightFingerBase
								{
									OFFSET 0.000000 0.000000 0.000000
									CHANNELS 3 Zrotation Yrotation Xrotation
									JOINT RightHandIndex1
									{
										OFFSET -0.622530 -0.000000 -0.000000
										CHANNELS 3 Zrotation Yrotation Xrotation
										End Site
										{
											OFFSET 0.000000 0.000000 0.000000
										}
									}
								}
								JOINT RThumb
								{
									OFFSET 0.000000 0.000000 0.000000
									CHANNELS 3 Zrotation Yrotation Xrotation
									End Site
									{
										OFFSET 0.000000 0.000000 0.000000
									}
								}
							}
						}
					}
				}
			}
		}
	}
}
MOTION
Frames: 9
Frame Time: 0.008333
0.914499 -2.470941 9.401695 -0.611637 13.893125 4.690924 -1.874707 3.919283 6.313925 -13.745633 -2.036488 12.303359 2.956400 -6.604205 1.170044 0.371410 -7.170182 25.664017 -2.362460 6.148911 -18.967922 2.118545 0.681732 -7.696877 -2.095181 -0.280428 -8.553680 2.323299 -1.470534 6.928341 1.360306 6.713448 -31.654207 -3.722838 6.851116 20.860098 6.483611 -1.823914 0.508559 1.767565 -0.927973 -11.409520 4.398089 -2.015134 13.126994 -22.886457 -2.476423 0.309739 0.841725 -5.731569 -6.260681 0.040132 -1.595220 11.309374 -12.109641 -6.644885 -1.983922 -22.735577 -34.291882 49.796482 13.981608 -27.684908 -14.523891 0.420461 -6.162510 14.359209 -6.291032 11.493856 -1.155459 -5.521109 0.000000 0.000000 -242.740753 -63.731628 -54.554401 -14.147006 3.416806 2.922049 61.856720 -0.979618 -55.437584 -66.580055 30.743284 -22.046053 -2.994737 -6.934465 21.558714 29.429752 21.351828 -92.147942 3.510375 0.000000 0.000000 144.640091 41.472012 67.619102
0.906196 -2.483135 9.610744 -0.648300 13.944337 4.702387 -1.890962 3.902327 6.305739 -13.608296 -1.967293 12.850624 2.944261 -6.928548 0.787359 0.345745 -7.091688 25.264568 -2.357944 6.154966 -19.160728 2.193894 0.669417 -7.664441 -1.923297 -0.460566 -8.609188 2.286042 -1.644609 7.440305 1.336209 6.810843 -31.923910 -3.647313 6.746830 20.724459 6.552348 -1.851333 0.587044 1.760093 -0.944881 -11.514177 4.395921 -1.834621 13.287213 -22.833895 -2.144448 0.791715 1.070274 -5.373687 -5.670215 0.350367 -1.530199 11.786347 -11.483501 -6.049926 -1.851569 -20.010517 -33.756538 51.754566 15.014974 -27.149227 -14.468181 0.414966 -6.018932 15.519039 -6.313527 11.548973 -1.099134 -5.609191 0.000000 0.000000 -244.272186 -64.096329 -53.980072 -14.269961 3.541112 2.878579 62.220303 -0.612137 -55.814816 -66.920906 31.028442 -21.868547 -2.964123 -6.937191 21.433678 30.330799 20.870874 -94.030602 3.582711 0.000000 0.000000 142.910400 41.976318 63.751831
0.903458 -2.486619 9.867348 -0.678729 14.004677 4.737132 -1.883478 3.890607 6.303622 -13.464201 -1.893528 13.397939 2.933400 -7.234532 0.458029 0.324123 -6.986202 24.912197 -2.347211 6.163193 -19.291584 2.310195 0.666183 -7.607068 -1.667329 -0.588305 -8.567883 2.270234 -1.792051 7.976309 1.318292 6.891713 -32.216347 -3.562800 6.659336 20.709084 6.630855 -1.867843 0.688029 1.771216 -0.950381 -11.625895 4.340651 -1.736577 13.191064 -23.060013 -2.029006 0.908990 1.055230 -5.244580 -5.467167 0.668462 -1.578317 11.927397 -11.244591 -5.848672 -1.801887 -18.421856 -33.572170 51.442711 15.699280 -26.933218 -14.468540 0.360917 -5.897717 16.398727 -6.418785 11.312187 -0.936496 -5.648218 0.000000 0.000000 -244.552979 -64.196686 -53.316982 -14.335222 3.684676 2.839560 62.630474 -0.240094 -56.144032 -67.212967 31.357237 -21.691845 -2.925516 -6.928157 21.357040 31.598476 20.693996 -95.470963 3.667008 0.000000 0.000000 141.572800 42.740051 60.279602
0.894791 -2.504500 10.082136 -0.718698 14.048361 4.754903 -1.887983 3.872916 6.293762 -13.340212 -1.837637 13.907872 2.915135 -7.561941 0.077527 0.296403 -6.903785 24.531206 -2.342796 6.153862 -19.456717 2.411725 0.654459 -7.560902 -1.431569 -0.729608 -8.540044 2.252975 -1.947353 8.515937 1.301973 6.964214 -32.480701 -3.473830 6.581323 20.728664 6.710009 -1.884310 0.779523 1.778736 -0.956512 -11.726394 4.281558 -1.630846 13.142463 -23.256226 -1.909470 0.882601 1.013308 -5.146703 -5.318966 0.944056 -1.661383 11.976376 -11.118668 -5.754572 -1.781544 -17.413750 -33.587540 50.780102 16.269909 -26.799574 -14.498082 0.299230 -5.795602 17.044340 -6.566395 10.925580 -0.801278 -5.692532 0.000000 0.000000 -244.899612 -64.413216 -52.824566 -14.414299 3.817604 2.794669 62.941059 0.099461 -56.516891 -67.551857 31.636648 -21.553373 -2.887569 -6.920436 21.241709 32.724262 20.485210 -97.053352 3.747637 0.000000 0.000000 140.078247 43.437397 56.628628
0.877765 -2.522139 10.329977 -0.716540 14.106409 4.773538 -1.884397 3.860626 6.287034 -13.214788 -1.777192 14.461842 2.910601 -7.898026 -0.316626 0.273900 -6.814640 24.149467 -2.344892 6.106669 -19.685087 2.517883 0.635396 -7.519441 -1.205384 -0.881747 -8.565589 2.191582 -2.116397 9.053278 1.280781 6.772277 -33.114681 -3.413132 6.454728 20.493923 6.748037 -1.902512 0.858415 1.789725 -0.946332 -11.772469 4.230818 -1.519819 13.165822 -23.349514 -1.764461 0.343257 0.934858 -5.042888 -5.224326 1.098869 -1.744635 12.031392 -10.958311 -5.722066 -1.759045 -16.447290 -33.497684 51.466267 16.767744 -26.455439 -14.452321 0.310664 -5.626670 18.008314 -6.419350 11.281720 -0.490465 -5.713376 0.000000 0.000000 -244.563095 -64.332581 -52.067001 -14.467971 3.952902 2.745983 63.197090 0.500245 -56.831905 -67.865784 31.903839 -21.570564 -2.861051 -6.911323 21.051704 32.835632 20.057554 -98.851570 3.819887 0.000000 0.000000 138.257797 43.984497 51.935349
0.856572 -2.565696 10.489205 -0.714585 14.125658 4.784978 -1.881039 3.845598 6.284663 -13.084753 -1.711292 14.993361 2.900497 -8.238433 -0.719620 0.256764 -6.669347 23.829052 -2.341609 6.118289 -19.658072 2.697569 0.637500 -7.443177 -0.841165 -0.951440 -8.491767 2.138528 -2.176626 9.750624 1.293049 6.930744 -33.665199 -3.330642 6.431746 19.949129 6.769314 -1.893721 0.999870 1.801244 -0.879180 -11.683432 4.254578 -1.386840 13.470816 -23.190037 -1.465595 0.553511 1.202835 -4.484652 -4.470367 1.421110 -1.623247 12.481569 -10.347876 -5.240802 -1.627280 -13.210519 -32.530807 53.676598 17.336567 -25.714968 -14.300127 0.370183 -5.448005 19.423437 -5.986089 12.471646 -0.146896 -5.726758 0.000000 0.000000 -244.237640 -64.522507 -51.546623 -14.574549 4.037693 2.688391 63.306694 0.976467 -57.028248 -68.185883 32.141876 -21.499504 -2.819232 -6.896080 20.868999 32.705570 19.628878 -100.526901 3.893647 0.000000 0.000000 136.683792 44.686977 47.614983
0.859982 -2.595555 10.740422 -0.716761 14.117059 4.797529 -1.864516 3.825320 6.285395 -12.967308 -1.657895 15.462294 2.883400 -8.569117 -1.106692 0.228033 -6.528299 23.494076 -2.347214 6.145662 -19.606737 2.823050 0.611841 -7.408568 -0.608152 -1.066468 -8.531600 2.065201 -2.230646 10.232589 1.259340 7.290339 -34.342396 -3.251562 6.476419 19.104834 6.811243 -1.869660 1.130135 1.783406 -0.867162 -11.711145 4.198146 -1.328916 13.494602 -23.381182 -1.419552 0.685001 1.241688 -4.263284 -4.151381 1.422555 -1.643600 12.562879 -10.140374 -5.016456 -1.580920 -11.773398 -32.162712 54.309437 17.667870 -25.460184 -14.289961 0.368577 -5.398410 19.800806 -6.043636 13.267869 -0.106592 -5.757581 0.000000 0.000000 -244.239395 -64.723114 -51.044838 -14.689954 4.099971 2.629438 63.372852 1.432254 -57.243942 -68.606812 32.260513 -21.320938 -2.763618 -6.880423 20.585300 31.999538 19.069408 -102.305283 3.959783 0.000000 0.000000 134.138062 44.932632 42.992821
0.856002 -2.636279 10.971662 -0.725879 14.092380 4.792976 -1.857060 3.797325 6.277636 -12.876441 -1.626261 15.893274 2.859329 -8.912575 -1.533348 0.192826 -6.393969 23.154169 -2.357292 6.165093 -19.561712 2.940095 0.578612 -7.390809 -0.387801 -1.180886 -8.587522 1.991212 -2.295844 10.641521 1.214105 7.751863 -35.020443 -3.190611 6.515187 18.048798 6.825429 -1.837655 1.253807 1.773036 -0.850796 -11.715385 4.153000 -1.263950 13.554224 -23.546696 -1.364226 0.820068 1.269068 -4.136282 -3.908412 1.397326 -1.691810 12.572699 -10.013947 -4.879630 -1.561587 -11.031480 -31.986759 54.445274 17.885935 -25.226032 -14.298736 0.358207 -5.364549 20.069149 -6.117107 14.002653 -0.083347 -5.788410 0.000000 0.000000 -244.292252 -65.014778 -50.601982 -14.805391 4.155897 2.570728 63.428051 1.891583 -57.428352 -68.991821 32.397003 -21.120527 -2.700462 -6.856158 20.324860 31.620602 18.740305 -103.687927 4.033756 0.000000 0.000000 131.899002 45.388451 38.790913
0.840112 -2.699599 11.170404 -0.740704 14.081116 4.782650 -1.847193 3.765786 6.271145 -12.790441 -1.589667 16.396749 2.844365 -9.261267 -1.997638 0.151018 -6.338209 22.788921 -2.379979 6.141676 -19.615034 3.029610 0.529370 -7.400467 -0.275681 -1.298066 -8.709469 2.025658 -2.239120 11.179138 1.218752 9.635383 -34.509697 -3.082775 6.706469 15.072144 6.578701 -1.808010 1.328038 1.754320 -0.874468 -11.752172 4.077397 -1.221559 13.504758 -23.739674 -1.372164 0.868713 1.276607 -4.202934 -3.859821 1.268337 -1.805414 12.464488 -10.012233 -4.827631 -1.550200 -10.971284 -31.944637 53.969322 17.933277 -24.991524 -14.323794 0.335056 -5.355224 19.976526 -6.346125 14.433811 -0.143298 -5.834874 0.000000 0.000000 -244.596832 -65.793373 -50.553448 -14.893414 4.228187 2.512830 63.459423 2.546176 -57.481438 -69.345909 32.490761 -20.905615 -2.625498 -6.815542 20.108870 31.792463 18.424423 -104.672653 4.110692 0.000000 0.000000 129.977737 46.103985 35.360329
